<?xml version="1.0" encoding="UTF-8"?><svg id="Lag_2" xmlns="http://www.w3.org/2000/svg" viewBox="0 0 338.23 362"><defs><style>.cls-1{fill:#f2f2f2;}</style></defs><g id="Lag_1-2"><path class="cls-1" d="M327.84,118.71l-48.83-38.87c.62-2.05,.96-4.22,.96-6.46V35.7c0-12.43-10.17-22.6-22.6-22.6h-18.84c-10.53,0-19.41,7.31-21.89,17.1l-30.45-24.23c-9.99-7.95-24.15-7.95-34.14,0L10.39,118.71c-17.64,14.04-11.31,40.57,7.68,47.27v171.15c0,13.68,11.19,24.87,24.87,24.87h61.3c13.68,0,24.87-11.19,24.87-24.87v-87.32c0-12.77,10.36-23.13,23.13-23.13h31.03c12.88,0,23.32,10.44,23.32,23.32v87.13c0,13.68,11.19,24.87,24.87,24.87h61.3c13.68,0,24.87-11.19,24.87-24.87V166.75c20.94-5.13,28.63-33.39,10.22-48.04Z"/></g></svg>